<svg version="1.1" xmlns="http://www.w3.org/2000/svg" xmlns:xlink="http://www.w3.org/1999/xlink" width="693" height="372"><defs/><g><g transform="translate(-94,-126) scale(1,1)"><rect fill="#C0C0C0" stroke="none" x="351" y="143" width="151" height="37" opacity="0.2"/></g><g transform="translate(-94,-126) scale(1,1)"><rect fill="#ffffff" stroke="none" x="344" y="136" width="151" height="37"/></g><g transform="translate(-94,-126) scale(1,1)"><path fill="none" stroke="#000000" d="M 344 136 L 495 136 L 495 173 L 344 173 L 344 136 Z Z" stroke-miterlimit="10"/></g><g transform="translate(-94,-126) scale(1,1)"><g><path fill="none" stroke="none"/><text fill="#000000" stroke="none" font-family="Arial" font-size="13px" font-style="normal" font-weight="normal" text-decoration="none" x="375.056884765625" y="153.5">«abstract type»</text></g></g><g transform="translate(-94,-126) scale(1,1)"><g><path fill="none" stroke="none"/><text fill="#000000" stroke="none" font-family="Arial" font-size="13px" font-style="italic" font-weight="bold" text-decoration="none" x="401.450439453125" y="168.5">System</text></g></g><g transform="translate(-94,-126) scale(1,1)"><rect fill="#C0C0C0" stroke="none" x="599" y="143" width="136" height="37" opacity="0.2"/></g><g transform="translate(-94,-126) scale(1,1)"><rect fill="#ffffff" stroke="none" x="592" y="136" width="136" height="37"/></g><g transform="translate(-94,-126) scale(1,1)"><path fill="none" stroke="#000000" d="M 592 136 L 728 136 L 728 173 L 592 173 L 592 136 Z Z" stroke-miterlimit="10"/></g><g transform="translate(-94,-126) scale(1,1)"><g><path fill="none" stroke="none"/><text fill="#000000" stroke="none" font-family="Arial" font-size="13px" font-style="normal" font-weight="normal" text-decoration="none" x="615.556884765625" y="153.5">«abstract type»</text></g></g><g transform="translate(-94,-126) scale(1,1)"><g><path fill="none" stroke="none"/><text fill="#000000" stroke="none" font-family="Arial" font-size="13px" font-style="italic" font-weight="bold" text-decoration="none" x="636.174072265625" y="168.5">Behavior</text></g></g><g transform="translate(-94,-126) scale(1,1)"><rect fill="#C0C0C0" stroke="none" x="111" y="247" width="151" height="120" opacity="0.2"/></g><g transform="translate(-94,-126) scale(1,1)"><rect fill="#ffffff" stroke="none" x="104" y="240" width="151" height="120"/></g><g transform="translate(-94,-126) scale(1,1)"><path fill="none" stroke="#000000" d="M 104 240 L 255 240 L 255 360 L 104 360 L 104 240 Z Z" stroke-miterlimit="10"/></g><g transform="translate(-94,-126) scale(1,1)"><path fill="none" stroke="#000000" d="M 104 278 L 255 278" stroke-miterlimit="10"/></g><g transform="translate(-94,-126) scale(1,1)"><g><path fill="none" stroke="none"/><text fill="#000000" stroke="none" font-family="Arial" font-size="13px" font-style="normal" font-weight="normal" text-decoration="none" x="145.16552734375" y="257.5">«boundary»</text></g></g><g transform="translate(-94,-126) scale(1,1)"><g><path fill="none" stroke="none"/><text fill="#000000" stroke="none" font-family="Arial" font-size="13px" font-style="normal" font-weight="bold" text-decoration="none" x="168.299560546875" y="272.5">Box</text></g></g><g transform="translate(-94,-126) scale(1,1)"><g><path fill="none" stroke="none"/><text fill="#000000" stroke="none" font-family="Arial" font-size="13px" font-style="normal" font-weight="normal" text-decoration="none" x="109" y="295.5">+id: Id {unique}</text></g></g><g transform="translate(-94,-126) scale(1,1)"><g><path fill="none" stroke="none"/><text fill="#000000" stroke="none" font-family="Arial" font-size="13px" font-style="normal" font-weight="normal" text-decoration="none" x="109" y="310.5">+clk: Clock {unique}</text></g></g><g transform="translate(-94,-126) scale(1,1)"><g><path fill="none" stroke="none"/><text fill="#000000" stroke="none" font-family="Arial" font-size="13px" font-style="normal" font-weight="normal" text-decoration="none" x="109" y="325.5">+cstate: State</text></g></g><g transform="translate(-94,-126) scale(1,1)"><g><path fill="none" stroke="none"/><text fill="#000000" stroke="none" font-family="Arial" font-size="13px" font-style="normal" font-weight="normal" text-decoration="none" x="109" y="340.5">+gate: Dict</text></g></g><g transform="translate(-94,-126) scale(1,1)"><g><path fill="none" stroke="none"/><text fill="#000000" stroke="none" font-family="Arial" font-size="13px" font-style="normal" font-weight="normal" text-decoration="none" x="109" y="355.5">+child: Dict[1..*]</text></g></g><g transform="translate(-94,-126) scale(1,1)"><path fill="none" stroke="#000000" d="M 256 253 L 386 174" stroke-miterlimit="10"/></g><g transform="translate(-94,-126) scale(1,1)"><path fill="#FFFFFF" stroke="none" d="M 373.0025633847433 191.75011665968384 L 386 174 L 364.25819657439496 177.36065228822446"/></g><g transform="translate(-94,-126) scale(1,1)"><path fill="none" stroke="#000000" d="M 373.0025633847433 191.75011665968384 L 386 174 L 364.25819657439496 177.36065228822446 L 373.0025633847433 191.75011665968384" stroke-miterlimit="10"/></g><g transform="translate(-94,-126) scale(1,1)"><g><path fill="none" stroke="none"/><text fill="#000000" stroke="none" font-family="Arial" font-size="13px" font-style="normal" font-weight="normal" text-decoration="none" x="345.46630859375" y="211.5">+isa</text></g></g><g transform="translate(-94,-126) scale(1,1)"><g><path fill="none" stroke="none"/><text fill="#000000" stroke="none" font-family="Arial" font-size="13px" font-style="normal" font-weight="normal" text-decoration="none" x="345.46630859375" y="211.5">+isa</text></g></g><g transform="translate(-94,-126) scale(1,1)"><rect fill="#C0C0C0" stroke="none" x="350" y="295" width="152" height="136" opacity="0.2"/></g><g transform="translate(-94,-126) scale(1,1)"><rect fill="#ffffff" stroke="none" x="343" y="288" width="152" height="136"/></g><g transform="translate(-94,-126) scale(1,1)"><path fill="none" stroke="#000000" d="M 343 288 L 495 288 L 495 424 L 343 424 L 343 288 Z Z" stroke-miterlimit="10"/></g><g transform="translate(-94,-126) scale(1,1)"><path fill="none" stroke="#000000" d="M 343 326 L 495 326" stroke-miterlimit="10"/></g><g transform="translate(-94,-126) scale(1,1)"><g><path fill="none" stroke="none"/><text fill="#000000" stroke="none" font-family="Arial" font-size="13px" font-style="normal" font-weight="normal" text-decoration="none" x="389.0009765625" y="305.5">«optional»</text></g></g><g transform="translate(-94,-126) scale(1,1)"><g><path fill="none" stroke="none"/><text fill="#000000" stroke="none" font-family="Arial" font-size="13px" font-style="normal" font-weight="bold" text-decoration="none" x="403.10546875" y="320.5">Block</text></g></g><g transform="translate(-94,-126) scale(1,1)"><g><path fill="none" stroke="none"/><text fill="#000000" stroke="none" font-family="Arial" font-size="13px" font-style="normal" font-weight="normal" text-decoration="none" x="348" y="343.5">+id: id {unique}</text></g></g><g transform="translate(-94,-126) scale(1,1)"><g><path fill="none" stroke="none"/><text fill="#000000" stroke="none" font-family="Arial" font-size="13px" font-style="normal" font-weight="normal" text-decoration="none" x="348" y="358.5">+surr: System</text></g></g><g transform="translate(-94,-126) scale(1,1)"><g><path fill="none" stroke="none"/><text fill="#000000" stroke="none" font-family="Arial" font-size="13px" font-style="normal" font-weight="normal" text-decoration="none" x="348" y="373.5">+cstate: State</text></g></g><g transform="translate(-94,-126) scale(1,1)"><g><path fill="none" stroke="none"/><text fill="#000000" stroke="none" font-family="Arial" font-size="13px" font-style="normal" font-weight="normal" text-decoration="none" x="348" y="388.5">+gate: Dict</text></g></g><g transform="translate(-94,-126) scale(1,1)"><g><path fill="none" stroke="none"/><text fill="#000000" stroke="none" font-family="Arial" font-size="13px" font-style="normal" font-weight="normal" text-decoration="none" x="348" y="403.5">+child: Dict[1..*]</text></g></g><g transform="translate(-94,-126) scale(1,1)"><path fill="none" stroke="#000000" d="M 419 287 L 419 174" stroke-miterlimit="10"/></g><g transform="translate(-94,-126) scale(1,1)"><path fill="#FFFFFF" stroke="none" d="M 427.419035512032 194.3253497152483 L 419 174 L 410.580964487968 194.3253497152483"/></g><g transform="translate(-94,-126) scale(1,1)"><path fill="none" stroke="#000000" d="M 427.419035512032 194.3253497152483 L 419 174 L 410.580964487968 194.3253497152483 L 427.419035512032 194.3253497152483" stroke-miterlimit="10"/></g><g transform="translate(-94,-126) scale(1,1)"><g><path fill="none" stroke="none"/><text fill="#000000" stroke="none" font-family="Arial" font-size="13px" font-style="normal" font-weight="normal" text-decoration="none" x="421.5" y="212.5">+isa</text></g></g><g transform="translate(-94,-126) scale(1,1)"><path fill="none" stroke="#000000" d="M 342 338 L 256 318" stroke-miterlimit="10"/></g><g transform="translate(-94,-126) scale(1,1)"><path fill="#000000" stroke="none" d="M 266.852039465265 316.201878912773 L 256 318 L 264.94501430976567 324.4020870814202 L 277.4281765948623 322.98329688252613"/></g><g transform="translate(-94,-126) scale(1,1)"><path fill="none" stroke="#000000" d="M 266.852039465265 316.201878912773 L 256 318 L 264.94501430976567 324.4020870814202 L 277.4281765948623 322.98329688252613 L 266.852039465265 316.201878912773" stroke-miterlimit="10"/></g><g transform="translate(-94,-126) scale(1,1)"><g><path fill="none" stroke="none"/><text fill="#000000" stroke="none" font-family="Arial" font-size="13px" font-style="normal" font-weight="normal" text-decoration="none" x="313.5" y="326.5">0..*</text></g></g><g transform="translate(-94,-126) scale(1,1)"><g><path fill="none" stroke="none"/><text fill="#000000" stroke="none" font-family="Arial" font-size="13px" font-style="normal" font-weight="normal" text-decoration="none" x="255.5" y="339.5">{unique}</text></g></g><g transform="translate(-94,-126) scale(1,1)"><g><path fill="none" stroke="none"/><text fill="#000000" stroke="none" font-family="Arial" font-size="13px" font-style="normal" font-weight="normal" text-decoration="none" x="275.726806640625" y="316.5">1</text></g></g><g transform="translate(-94,-126) scale(1,1)"><rect fill="#C0C0C0" stroke="none" x="591" y="247" width="152" height="248" opacity="0.2"/></g><g transform="translate(-94,-126) scale(1,1)"><rect fill="#ffffff" stroke="none" x="584" y="240" width="152" height="248"/></g><g transform="translate(-94,-126) scale(1,1)"><path fill="none" stroke="#000000" d="M 584 240 L 736 240 L 736 488 L 584 488 L 584 240 Z Z" stroke-miterlimit="10"/></g><g transform="translate(-94,-126) scale(1,1)"><path fill="none" stroke="#000000" d="M 584 278 L 736 278" stroke-miterlimit="10"/></g><g transform="translate(-94,-126) scale(1,1)"><path fill="none" stroke="#000000" d="M 584 421 L 736 421" stroke-miterlimit="10"/></g><g transform="translate(-94,-126) scale(1,1)"><g><path fill="none" stroke="none"/><text fill="#000000" stroke="none" font-family="Arial" font-size="13px" font-style="normal" font-weight="normal" text-decoration="none" x="607.974609375" y="257.5">«parametric type»</text></g></g><g transform="translate(-94,-126) scale(1,1)"><g><path fill="none" stroke="none"/><text fill="#000000" stroke="none" font-family="Arial" font-size="13px" font-style="normal" font-weight="bold" text-decoration="none" x="620.254150390625" y="272.5">StateMachine</text></g></g><g transform="translate(-94,-126) scale(1,1)"><g><path fill="none" stroke="none"/><text fill="#000000" stroke="none" font-family="Arial" font-size="13px" font-style="normal" font-weight="normal" text-decoration="none" x="589" y="295.5">+id: Id {unique}</text></g></g><g transform="translate(-94,-126) scale(1,1)"><g><path fill="none" stroke="none"/><text fill="#000000" stroke="none" font-family="Arial" font-size="13px" font-style="normal" font-weight="normal" text-decoration="none" x="589" y="310.5">+b: Behavior</text></g></g><g transform="translate(-94,-126) scale(1,1)"><g><path fill="none" stroke="none"/><text fill="#000000" stroke="none" font-family="Arial" font-size="13px" font-style="normal" font-weight="normal" text-decoration="none" x="589" y="325.5">+cstate: State</text></g></g><g transform="translate(-94,-126) scale(1,1)"><g><path fill="none" stroke="none"/><text fill="#000000" stroke="none" font-family="Arial" font-size="13px" font-style="normal" font-weight="normal" text-decoration="none" x="589" y="340.5">+surr: System</text></g></g><g transform="translate(-94,-126) scale(1,1)"><g><path fill="none" stroke="none"/><text fill="#000000" stroke="none" font-family="Arial" font-size="13px" font-style="normal" font-weight="normal" text-decoration="none" x="589" y="355.5">+gate: Dict[0..*]</text></g></g><g transform="translate(-94,-126) scale(1,1)"><g><path fill="none" stroke="none"/><text fill="#000000" stroke="none" font-family="Arial" font-size="13px" font-style="normal" font-weight="normal" text-decoration="none" x="589" y="370.5">+state: State</text></g></g><g transform="translate(-94,-126) scale(1,1)"><g><path fill="none" stroke="none"/><text fill="#000000" stroke="none" font-family="Arial" font-size="13px" font-style="normal" font-weight="normal" text-decoration="none" x="589" y="385.5">+var: Dict[0..*]</text></g></g><g transform="translate(-94,-126) scale(1,1)"><g><path fill="none" stroke="none"/><text fill="#000000" stroke="none" font-family="Arial" font-size="13px" font-style="normal" font-weight="normal" text-decoration="none" x="589" y="400.5">+child: Dict</text></g></g><g transform="translate(-94,-126) scale(1,1)"><g><path fill="none" stroke="none"/><text fill="#000000" stroke="none" font-family="Arial" font-size="13px" font-style="normal" font-weight="normal" text-decoration="none" x="589" y="415.5">+task: Task</text></g></g><g transform="translate(-94,-126) scale(1,1)"><g><path fill="none" stroke="none"/><text fill="#000000" stroke="none" font-family="Arial" font-size="13px" font-style="normal" font-weight="normal" text-decoration="none" x="589" y="438.5">-operate!()</text></g></g><g transform="translate(-94,-126) scale(1,1)"><g><path fill="none" stroke="none"/><text fill="#000000" stroke="none" font-family="Arial" font-size="13px" font-style="normal" font-weight="normal" text-decoration="none" x="589" y="453.5">-clock()</text></g></g><g transform="translate(-94,-126) scale(1,1)"><g><path fill="none" stroke="none"/><text fill="#000000" stroke="none" font-family="Arial" font-size="13px" font-style="normal" font-weight="normal" text-decoration="none" x="589" y="468.5">+start!()</text></g></g><g transform="translate(-94,-126) scale(1,1)"><g><path fill="none" stroke="none"/><text fill="#000000" stroke="none" font-family="Arial" font-size="13px" font-style="normal" font-weight="normal" text-decoration="none" x="589" y="483.5">«transition»+step!()</text></g></g><g transform="translate(-94,-126) scale(1,1)"><path fill="none" stroke="#000000" d="M 583 297 L 442 174" stroke-miterlimit="10"/></g><g transform="translate(-94,-126) scale(1,1)"><path fill="#FFFFFF" stroke="none" d="M 462.8509654888477 181.01692512307795 L 442 174 L 451.7821437538442 193.70557442905755"/></g><g transform="translate(-94,-126) scale(1,1)"><path fill="none" stroke="#000000" d="M 462.8509654888477 181.01692512307795 L 442 174 L 451.7821437538442 193.70557442905755 L 462.8509654888477 181.01692512307795" stroke-miterlimit="10"/></g><g transform="translate(-94,-126) scale(1,1)"><g><path fill="none" stroke="none"/><text fill="#000000" stroke="none" font-family="Arial" font-size="13px" font-style="normal" font-weight="normal" text-decoration="none" x="485.5" y="214.5">+isa</text></g></g><g transform="translate(-94,-126) scale(1,1)"><path fill="none" stroke="#000000" d="M 660 239 L 660 174" stroke-miterlimit="10"/></g><g transform="translate(-94,-126) scale(1,1)"><path fill="none" stroke="#000000" d="M 664.209517756016 184.16267485762415 L 660 174 L 655.790482243984 184.16267485762415" stroke-miterlimit="10"/></g><g transform="translate(-94,-126) scale(1,1)"><g><path fill="none" stroke="none"/><text fill="#000000" stroke="none" font-family="Arial" font-size="13px" font-style="normal" font-weight="normal" text-decoration="none" x="661.5" y="202.5">+implements a</text></g></g><g transform="translate(-94,-126) scale(1,1)"><path fill="none" stroke="#000000" d="M 584 440 L 186 440 M 186 440 A 8 8 0 0 1 178 432 L 178 360" stroke-miterlimit="10"/></g><g transform="translate(-94,-126) scale(1,1)"><path fill="#000000" stroke="none" d="M 182.209517756016 370.16267485762415 L 178 360 L 173.790482243984 370.16267485762415 L 178 382"/></g><g transform="translate(-94,-126) scale(1,1)"><path fill="none" stroke="#000000" d="M 182.209517756016 370.16267485762415 L 178 360 L 173.790482243984 370.16267485762415 L 178 382 L 182.209517756016 370.16267485762415" stroke-miterlimit="10"/></g><g transform="translate(-94,-126) scale(1,1)"><g><path fill="none" stroke="none"/><text fill="#000000" stroke="none" font-family="Arial" font-size="13px" font-style="normal" font-weight="normal" text-decoration="none" x="552.5" y="433.5">1..*</text></g></g><g transform="translate(-94,-126) scale(1,1)"><g><path fill="none" stroke="none"/><text fill="#000000" stroke="none" font-family="Arial" font-size="13px" font-style="normal" font-weight="normal" text-decoration="none" x="125.5" y="388.5">{unique}</text></g></g><g transform="translate(-94,-126) scale(1,1)"><g><path fill="none" stroke="none"/><text fill="#000000" stroke="none" font-family="Arial" font-size="13px" font-style="normal" font-weight="normal" text-decoration="none" x="186.5" y="387.5">1</text></g></g><g transform="translate(-94,-126) scale(1,1)"><path fill="none" stroke="#000000" d="M 448 288 L 448 264 L 526 264 L 526 312 L 495 312" stroke-miterlimit="10"/></g><g transform="translate(-94,-126) scale(1,1)"><path fill="#000000" stroke="none" d="M 505.16267485762415 307.790482243984 L 495 312 L 505.16267485762415 316.209517756016 L 517 312"/></g><g transform="translate(-94,-126) scale(1,1)"><path fill="none" stroke="#000000" d="M 505.16267485762415 307.790482243984 L 495 312 L 505.16267485762415 316.209517756016 L 517 312 L 505.16267485762415 307.790482243984" stroke-miterlimit="10"/></g><g transform="translate(-94,-126) scale(1,1)"><g><path fill="none" stroke="none"/><text fill="#000000" stroke="none" font-family="Arial" font-size="13px" font-style="normal" font-weight="normal" text-decoration="none" x="454.5" y="282.5">0..*</text></g></g><g transform="translate(-94,-126) scale(1,1)"><g><path fill="none" stroke="none"/><text fill="#000000" stroke="none" font-family="Arial" font-size="13px" font-style="normal" font-weight="normal" text-decoration="none" x="502.5" y="305.5">0..1</text></g></g><g transform="translate(-94,-126) scale(1,1)"><path fill="none" stroke="#000000" d="M 584 361 L 495 361" stroke-miterlimit="10"/></g><g transform="translate(-94,-126) scale(1,1)"><path fill="#000000" stroke="none" d="M 505.16267485762415 356.790482243984 L 495 361 L 505.16267485762415 365.209517756016 L 517 361"/></g><g transform="translate(-94,-126) scale(1,1)"><path fill="none" stroke="#000000" d="M 505.16267485762415 356.790482243984 L 495 361 L 505.16267485762415 365.209517756016 L 517 361 L 505.16267485762415 356.790482243984" stroke-miterlimit="10"/></g><g transform="translate(-94,-126) scale(1,1)"><g><path fill="none" stroke="none"/><text fill="#000000" stroke="none" font-family="Arial" font-size="13px" font-style="normal" font-weight="normal" text-decoration="none" x="552.5" y="354.5">1..*</text></g></g><g transform="translate(-94,-126) scale(1,1)"><g><path fill="none" stroke="none"/><text fill="#000000" stroke="none" font-family="Arial" font-size="13px" font-style="normal" font-weight="normal" text-decoration="none" x="505.5" y="354.5">0..1</text></g></g><g transform="translate(-94,-126) scale(1,1)"><path fill="none" stroke="#000000" d="M 704 240 L 704 216 L 776 216 L 776 264 L 736 264" stroke-miterlimit="10"/></g><g transform="translate(-94,-126) scale(1,1)"><path fill="#000000" stroke="none" d="M 746.1626748576241 259.790482243984 L 736 264 L 746.1626748576241 268.209517756016 L 758 264"/></g><g transform="translate(-94,-126) scale(1,1)"><path fill="none" stroke="#000000" d="M 746.1626748576241 259.790482243984 L 736 264 L 746.1626748576241 268.209517756016 L 758 264 L 746.1626748576241 259.790482243984" stroke-miterlimit="10"/></g><g transform="translate(-94,-126) scale(1,1)"><g><path fill="none" stroke="none"/><text fill="#000000" stroke="none" font-family="Arial" font-size="13px" font-style="normal" font-weight="normal" text-decoration="none" x="710.5" y="235.5">0..*</text></g></g><g transform="translate(-94,-126) scale(1,1)"><g><path fill="none" stroke="none"/><text fill="#000000" stroke="none" font-family="Arial" font-size="13px" font-style="normal" font-weight="normal" text-decoration="none" x="747.5" y="257.5">0..*</text></g></g></g></svg>