<svg version="1.1" xmlns="http://www.w3.org/2000/svg" xmlns:xlink="http://www.w3.org/1999/xlink" width="683" height="532"><defs/><g><g transform="translate(-174,-86) scale(1,1)"><rect fill="#C0C0C0" stroke="none" x="191" y="103" width="112" height="37" opacity="0.2"/></g><g transform="translate(-174,-86) scale(1,1)"><rect fill="#ffffff" stroke="none" x="184" y="96" width="112" height="37"/></g><g transform="translate(-174,-86) scale(1,1)"><path fill="none" stroke="#000000" d="M 184 96 L 296 96 L 296 133 L 184 133 L 184 96 Z Z" stroke-miterlimit="10"/></g><g transform="translate(-174,-86) scale(1,1)"><g><path fill="none" stroke="none"/><text fill="#000000" stroke="none" font-family="Arial" font-size="13px" font-style="normal" font-weight="normal" text-decoration="none" x="195.556884765625" y="113.5">«abstract type»</text></g></g><g transform="translate(-174,-86) scale(1,1)"><g><path fill="none" stroke="none"/><text fill="#000000" stroke="none" font-family="Arial" font-size="13px" font-style="italic" font-weight="bold" text-decoration="none" x="221.950439453125" y="128.5">System</text></g></g><g transform="translate(-174,-86) scale(1,1)"><rect fill="#C0C0C0" stroke="none" x="319" y="103" width="112" height="37" opacity="0.2"/></g><g transform="translate(-174,-86) scale(1,1)"><rect fill="#ffffff" stroke="none" x="312" y="96" width="112" height="37"/></g><g transform="translate(-174,-86) scale(1,1)"><path fill="none" stroke="#000000" d="M 312 96 L 424 96 L 424 133 L 312 133 L 312 96 Z Z" stroke-miterlimit="10"/></g><g transform="translate(-174,-86) scale(1,1)"><g><path fill="none" stroke="none"/><text fill="#000000" stroke="none" font-family="Arial" font-size="13px" font-style="normal" font-weight="normal" text-decoration="none" x="323.556884765625" y="113.5">«abstract type»</text></g></g><g transform="translate(-174,-86) scale(1,1)"><g><path fill="none" stroke="none"/><text fill="#000000" stroke="none" font-family="Arial" font-size="13px" font-style="italic" font-weight="bold" text-decoration="none" x="344.174072265625" y="128.5">Behavior</text></g></g><g transform="translate(-174,-86) scale(1,1)"><rect fill="#C0C0C0" stroke="none" x="191" y="231" width="204.46337890625" height="384" opacity="0.2"/></g><g transform="translate(-174,-86) scale(1,1)"><rect fill="#ffffff" stroke="none" x="184" y="224" width="204.46337890625" height="384"/></g><g transform="translate(-174,-86) scale(1,1)"><path fill="none" stroke="#000000" d="M 184 224 L 388.46337890625 224 L 388.46337890625 608 L 184 608 L 184 224 Z Z" stroke-miterlimit="10"/></g><g transform="translate(-174,-86) scale(1,1)"><path fill="none" stroke="#000000" d="M 184 262 L 388.46337890625 262" stroke-miterlimit="10"/></g><g transform="translate(-174,-86) scale(1,1)"><path fill="none" stroke="#000000" d="M 184 375 L 388.46337890625 375" stroke-miterlimit="10"/></g><g transform="translate(-174,-86) scale(1,1)"><g><path fill="none" stroke="none"/><text fill="#000000" stroke="none" font-family="Arial" font-size="13px" font-style="normal" font-weight="normal" text-decoration="none" x="234.206298828125" y="241.5">«parametric type»</text></g></g><g transform="translate(-174,-86) scale(1,1)"><g><path fill="none" stroke="none"/><text fill="#000000" stroke="none" font-family="Arial" font-size="13px" font-style="normal" font-weight="bold" text-decoration="none" x="246.48583984375" y="256.5">StateMachine</text></g></g><g transform="translate(-174,-86) scale(1,1)"><g><path fill="none" stroke="none"/><text fill="#000000" stroke="none" font-family="Arial" font-size="13px" font-style="normal" font-weight="normal" text-decoration="none" x="189" y="279.5">+id: Id {unique}</text></g></g><g transform="translate(-174,-86) scale(1,1)"><g><path fill="none" stroke="none"/><text fill="#000000" stroke="none" font-family="Arial" font-size="13px" font-style="normal" font-weight="normal" text-decoration="none" x="189" y="294.5">+b: Behavior</text></g></g><g transform="translate(-174,-86) scale(1,1)"><g><path fill="none" stroke="none"/><text fill="#000000" stroke="none" font-family="Arial" font-size="13px" font-style="normal" font-weight="normal" text-decoration="none" x="189" y="309.5">+env: System</text></g></g><g transform="translate(-174,-86) scale(1,1)"><g><path fill="none" stroke="none"/><text fill="#000000" stroke="none" font-family="Arial" font-size="13px" font-style="normal" font-weight="normal" text-decoration="none" x="189" y="324.5">+gate: Channel[0..*]</text></g></g><g transform="translate(-174,-86) scale(1,1)"><g><path fill="none" stroke="none"/><text fill="#000000" stroke="none" font-family="Arial" font-size="13px" font-style="normal" font-weight="normal" text-decoration="none" x="189" y="339.5">+state: AbstractState</text></g></g><g transform="translate(-174,-86) scale(1,1)"><g><path fill="none" stroke="none"/><text fill="#000000" stroke="none" font-family="Arial" font-size="13px" font-style="normal" font-weight="normal" text-decoration="none" x="189" y="354.5">+var: Any[0..*]</text></g></g><g transform="translate(-174,-86) scale(1,1)"><g><path fill="none" stroke="none"/><text fill="#000000" stroke="none" font-family="Arial" font-size="13px" font-style="normal" font-weight="normal" text-decoration="none" x="189" y="369.5">+task: Task</text></g></g><g transform="translate(-174,-86) scale(1,1)"><g><path fill="none" stroke="none"/><text fill="#000000" stroke="none" font-family="Arial" font-size="13px" font-style="normal" font-weight="normal" text-decoration="none" x="189" y="392.5">-operate!()</text></g></g><g transform="translate(-174,-86) scale(1,1)"><g><path fill="none" stroke="none"/><text fill="#000000" stroke="none" font-family="Arial" font-size="13px" font-style="normal" font-weight="normal" text-decoration="none" x="189" y="407.5">-clock()</text></g></g><g transform="translate(-174,-86) scale(1,1)"><g><path fill="none" stroke="none"/><text fill="#000000" stroke="none" font-family="Arial" font-size="13px" font-style="normal" font-weight="normal" text-decoration="none" x="189" y="422.5">+start!()</text></g></g><g transform="translate(-174,-86) scale(1,1)"><g><path fill="none" stroke="none"/><text fill="#000000" stroke="none" font-family="Arial" font-size="13px" font-style="normal" font-weight="normal" text-decoration="none" x="189" y="437.5">«transition»+step!()</text></g></g><g transform="translate(-174,-86) scale(1,1)"><path fill="none" stroke="#000000" d="M 248 224 L 248 133" stroke-miterlimit="10"/></g><g transform="translate(-174,-86) scale(1,1)"><path fill="#FFFFFF" stroke="none" d="M 256.419035512032 153.3253497152483 L 248 133 L 239.58096448796803 153.3253497152483"/></g><g transform="translate(-174,-86) scale(1,1)"><path fill="none" stroke="#000000" d="M 256.419035512032 153.3253497152483 L 248 133 L 239.58096448796803 153.3253497152483 L 256.419035512032 153.3253497152483" stroke-miterlimit="10"/></g><g transform="translate(-174,-86) scale(1,1)"><g><path fill="none" stroke="none"/><text fill="#000000" stroke="none" font-family="Arial" font-size="13px" font-style="normal" font-weight="normal" text-decoration="none" x="252.5" y="179.5">+isa</text></g></g><g transform="translate(-174,-86) scale(1,1)"><path fill="none" stroke="#000000" d="M 336 224 L 336 133" stroke-miterlimit="10"/></g><g transform="translate(-174,-86) scale(1,1)"><path fill="none" stroke="#000000" d="M 340.209517756016 143.16267485762415 L 336 133 L 331.790482243984 143.16267485762415" stroke-miterlimit="10"/></g><g transform="translate(-174,-86) scale(1,1)"><g><path fill="none" stroke="none"/><text fill="#000000" stroke="none" font-family="Arial" font-size="13px" font-style="normal" font-weight="normal" text-decoration="none" x="341.5" y="179.5">+implements a</text></g></g><g transform="translate(-174,-86) scale(1,1)"><rect fill="#C0C0C0" stroke="none" x="447" y="103" width="160" height="37" opacity="0.2"/></g><g transform="translate(-174,-86) scale(1,1)"><rect fill="#ffffff" stroke="none" x="440" y="96" width="160" height="37"/></g><g transform="translate(-174,-86) scale(1,1)"><path fill="none" stroke="#000000" d="M 440 96 L 600 96 L 600 133 L 440 133 L 440 96 Z Z" stroke-miterlimit="10"/></g><g transform="translate(-174,-86) scale(1,1)"><g><path fill="none" stroke="none"/><text fill="#000000" stroke="none" font-family="Arial" font-size="13px" font-style="normal" font-weight="normal" text-decoration="none" x="475.556884765625" y="113.5">«abstract type»</text></g></g><g transform="translate(-174,-86) scale(1,1)"><g><path fill="none" stroke="none"/><text fill="#000000" stroke="none" font-family="Arial" font-size="13px" font-style="italic" font-weight="bold" text-decoration="none" x="484.976806640625" y="128.5">AbstractState</text></g></g><g transform="translate(-174,-86) scale(1,1)"><rect fill="#C0C0C0" stroke="none" x="447" y="263" width="127" height="37" opacity="0.2"/></g><g transform="translate(-174,-86) scale(1,1)"><rect fill="#ffffff" stroke="none" x="440" y="256" width="127" height="37"/></g><g transform="translate(-174,-86) scale(1,1)"><path fill="none" stroke="#000000" d="M 440 256 L 567 256 L 567 293 L 440 293 L 440 256 Z Z" stroke-miterlimit="10"/></g><g transform="translate(-174,-86) scale(1,1)"><g><path fill="none" stroke="none"/><text fill="#000000" stroke="none" font-family="Arial" font-size="13px" font-style="normal" font-weight="normal" text-decoration="none" x="459.056884765625" y="273.5">«abstract type»</text></g></g><g transform="translate(-174,-86) scale(1,1)"><g><path fill="none" stroke="none"/><text fill="#000000" stroke="none" font-family="Arial" font-size="13px" font-style="italic" font-weight="bold" text-decoration="none" x="472.812255859375" y="288.5">SimpleState</text></g></g><g transform="translate(-174,-86) scale(1,1)"><path fill="none" stroke="#000000" d="M 504 256 L 504 133" stroke-miterlimit="10"/></g><g transform="translate(-174,-86) scale(1,1)"><path fill="#FFFFFF" stroke="none" d="M 512.419035512032 153.3253497152483 L 504 133 L 495.580964487968 153.3253497152483"/></g><g transform="translate(-174,-86) scale(1,1)"><path fill="none" stroke="#000000" d="M 512.419035512032 153.3253497152483 L 504 133 L 495.580964487968 153.3253497152483 L 512.419035512032 153.3253497152483" stroke-miterlimit="10"/></g><g transform="translate(-174,-86) scale(1,1)"><g><path fill="none" stroke="none"/><text fill="#000000" stroke="none" font-family="Arial" font-size="13px" font-style="normal" font-weight="normal" text-decoration="none" x="510.5" y="251.5">+isa</text></g></g><g transform="translate(-174,-86) scale(1,1)"><rect fill="#C0C0C0" stroke="none" x="543" y="319" width="127" height="48" opacity="0.2"/></g><g transform="translate(-174,-86) scale(1,1)"><rect fill="#ffffff" stroke="none" x="536" y="312" width="127" height="48"/></g><g transform="translate(-174,-86) scale(1,1)"><path fill="none" stroke="#000000" d="M 536 312 L 663 312 L 663 360 L 536 360 L 536 312 Z Z" stroke-miterlimit="10"/></g><g transform="translate(-174,-86) scale(1,1)"><path fill="none" stroke="#000000" d="M 536 337 L 663 337" stroke-miterlimit="10"/></g><g transform="translate(-174,-86) scale(1,1)"><g><path fill="none" stroke="none"/><text fill="#000000" stroke="none" font-family="Arial" font-size="13px" font-style="normal" font-weight="bold" text-decoration="none" x="553.254150390625" y="331.5">CompositeState</text></g></g><g transform="translate(-174,-86) scale(1,1)"><g><path fill="none" stroke="none"/><text fill="#000000" stroke="none" font-family="Arial" font-size="13px" font-style="normal" font-weight="normal" text-decoration="none" x="541" y="354.5">+region[1]</text></g></g><g transform="translate(-174,-86) scale(1,1)"><path fill="none" stroke="#000000" d="M 592 312 L 592 240 M 592 240 A 8 8 0 0 0 584 232 L 536 232 M 536 232 A 8 8 0 0 1 528 224 L 528 133" stroke-miterlimit="10"/></g><g transform="translate(-174,-86) scale(1,1)"><path fill="#FFFFFF" stroke="none" d="M 536.419035512032 153.3253497152483 L 528 133 L 519.580964487968 153.3253497152483"/></g><g transform="translate(-174,-86) scale(1,1)"><path fill="none" stroke="#000000" d="M 536.419035512032 153.3253497152483 L 528 133 L 519.580964487968 153.3253497152483 L 536.419035512032 153.3253497152483" stroke-miterlimit="10"/></g><g transform="translate(-174,-86) scale(1,1)"><g><path fill="none" stroke="none"/><text fill="#000000" stroke="none" font-family="Arial" font-size="13px" font-style="normal" font-weight="normal" text-decoration="none" x="598.5" y="299.5">+isa</text></g></g><g transform="translate(-174,-86) scale(1,1)"><rect fill="#C0C0C0" stroke="none" x="543" y="407" width="127" height="47" opacity="0.2"/></g><g transform="translate(-174,-86) scale(1,1)"><rect fill="#ffffff" stroke="none" x="536" y="400" width="127" height="47"/></g><g transform="translate(-174,-86) scale(1,1)"><path fill="none" stroke="#000000" d="M 536 400 L 663 400 L 663 447 L 536 447 L 536 400 Z Z" stroke-miterlimit="10"/></g><g transform="translate(-174,-86) scale(1,1)"><path fill="none" stroke="#000000" d="M 536 425 L 663 425" stroke-miterlimit="10"/></g><g transform="translate(-174,-86) scale(1,1)"><g><path fill="none" stroke="none"/><text fill="#000000" stroke="none" font-family="Arial" font-size="13px" font-style="normal" font-weight="bold" text-decoration="none" x="552.162353515625" y="419.5">OrthogonalState</text></g></g><g transform="translate(-174,-86) scale(1,1)"><g><path fill="none" stroke="none"/><text fill="#000000" stroke="none" font-family="Arial" font-size="13px" font-style="normal" font-weight="normal" text-decoration="none" x="541" y="442.5">+region[1..*]</text></g></g><g transform="translate(-174,-86) scale(1,1)"><path fill="none" stroke="#000000" d="M 599 399 L 599 361" stroke-miterlimit="10"/></g><g transform="translate(-174,-86) scale(1,1)"><path fill="#FFFFFF" stroke="none" d="M 607.419035512032 381.3253497152483 L 599 361 L 590.580964487968 381.3253497152483"/></g><g transform="translate(-174,-86) scale(1,1)"><path fill="none" stroke="#000000" d="M 607.419035512032 381.3253497152483 L 599 361 L 590.580964487968 381.3253497152483 L 607.419035512032 381.3253497152483" stroke-miterlimit="10"/></g><g transform="translate(-174,-86) scale(1,1)"><g><path fill="none" stroke="none"/><text fill="#000000" stroke="none" font-family="Arial" font-size="13px" font-style="normal" font-weight="normal" text-decoration="none" x="613.5" y="385.5">+isa</text></g></g><g transform="translate(-174,-86) scale(1,1)"><rect fill="#C0C0C0" stroke="none" x="623" y="479" width="135" height="47" opacity="0.2"/></g><g transform="translate(-174,-86) scale(1,1)"><rect fill="#ffffff" stroke="none" x="616" y="472" width="135" height="47"/></g><g transform="translate(-174,-86) scale(1,1)"><path fill="none" stroke="#000000" d="M 616 472 L 751 472 L 751 519 L 616 519 L 616 472 Z Z" stroke-miterlimit="10"/></g><g transform="translate(-174,-86) scale(1,1)"><path fill="none" stroke="#000000" d="M 616 497 L 751 497" stroke-miterlimit="10"/></g><g transform="translate(-174,-86) scale(1,1)"><g><path fill="none" stroke="none"/><text fill="#000000" stroke="none" font-family="Arial" font-size="13px" font-style="normal" font-weight="bold" text-decoration="none" x="632.188720703125" y="491.5">SubmachineState</text></g></g><g transform="translate(-174,-86) scale(1,1)"><g><path fill="none" stroke="none"/><text fill="#000000" stroke="none" font-family="Arial" font-size="13px" font-style="normal" font-weight="normal" text-decoration="none" x="621" y="514.5">+submachine</text></g></g><g transform="translate(-174,-86) scale(1,1)"><path fill="none" stroke="#000000" d="M 680 472 L 680 224 M 680 224 A 8 8 0 0 0 672 216 L 560 216 M 560 216 A 8 8 0 0 1 552 208 L 552 133" stroke-miterlimit="10"/></g><g transform="translate(-174,-86) scale(1,1)"><path fill="#FFFFFF" stroke="none" d="M 560.419035512032 153.3253497152483 L 552 133 L 543.580964487968 153.3253497152483"/></g><g transform="translate(-174,-86) scale(1,1)"><path fill="none" stroke="#000000" d="M 560.419035512032 153.3253497152483 L 552 133 L 543.580964487968 153.3253497152483 L 560.419035512032 153.3253497152483" stroke-miterlimit="10"/></g><g transform="translate(-174,-86) scale(1,1)"><g><path fill="none" stroke="none"/><text fill="#000000" stroke="none" font-family="Arial" font-size="13px" font-style="normal" font-weight="normal" text-decoration="none" x="686.5" y="435.5">+isa</text></g></g><g transform="translate(-174,-86) scale(1,1)"><path fill="none" stroke="#000000" d="M 472 133 L 472 224 M 472 224 A 8 8 0 0 1 464 232 L 388 232" stroke-miterlimit="10"/></g><g transform="translate(-174,-86) scale(1,1)"><path fill="#000000" stroke="none" d="M 398.16267485762415 227.790482243984 L 388 232 L 398.16267485762415 236.209517756016 L 410 232"/></g><g transform="translate(-174,-86) scale(1,1)"><path fill="none" stroke="#000000" d="M 398.16267485762415 227.790482243984 L 388 232 L 398.16267485762415 236.209517756016 L 410 232 L 398.16267485762415 227.790482243984" stroke-miterlimit="10"/></g><g transform="translate(-174,-86) scale(1,1)"><path fill="none" stroke="#000000" d="M 388 328 L 536 328" stroke-miterlimit="10"/></g><g transform="translate(-174,-86) scale(1,1)"><path fill="#000000" stroke="none" d="M 525.8373251423759 332.209517756016 L 536 328 L 525.8373251423758 323.790482243984 L 514 328"/></g><g transform="translate(-174,-86) scale(1,1)"><path fill="none" stroke="#000000" d="M 525.8373251423759 332.209517756016 L 536 328 L 525.8373251423758 323.790482243984 L 514 328 L 525.8373251423759 332.209517756016" stroke-miterlimit="10"/></g><g transform="translate(-174,-86) scale(1,1)"><g><path fill="none" stroke="none"/><text fill="#000000" stroke="none" font-family="Arial" font-size="13px" font-style="normal" font-weight="normal" text-decoration="none" x="391.5" y="319.5">+region</text></g></g><g transform="translate(-174,-86) scale(1,1)"><g><path fill="none" stroke="none"/><text fill="#000000" stroke="none" font-family="Arial" font-size="13px" font-style="normal" font-weight="normal" text-decoration="none" x="405.5" y="346.5">1</text></g></g><g transform="translate(-174,-86) scale(1,1)"><g><path fill="none" stroke="none"/><text fill="#000000" stroke="none" font-family="Arial" font-size="13px" font-style="normal" font-weight="normal" text-decoration="none" x="496.088623046875" y="319.5">+env</text></g></g><g transform="translate(-174,-86) scale(1,1)"><g><path fill="none" stroke="none"/><text fill="#000000" stroke="none" font-family="Arial" font-size="13px" font-style="normal" font-weight="normal" text-decoration="none" x="510.726806640625" y="346.5">1</text></g></g><g transform="translate(-174,-86) scale(1,1)"><path fill="none" stroke="#000000" d="M 388 422 L 536 422" stroke-miterlimit="10"/></g><g transform="translate(-174,-86) scale(1,1)"><path fill="#000000" stroke="none" d="M 525.8373251423759 426.209517756016 L 536 422 L 525.8373251423758 417.790482243984 L 514 422"/></g><g transform="translate(-174,-86) scale(1,1)"><path fill="none" stroke="#000000" d="M 525.8373251423759 426.209517756016 L 536 422 L 525.8373251423758 417.790482243984 L 514 422 L 525.8373251423759 426.209517756016" stroke-miterlimit="10"/></g><g transform="translate(-174,-86) scale(1,1)"><g><path fill="none" stroke="none"/><text fill="#000000" stroke="none" font-family="Arial" font-size="13px" font-style="normal" font-weight="normal" text-decoration="none" x="391.5" y="413.5">+region</text></g></g><g transform="translate(-174,-86) scale(1,1)"><g><path fill="none" stroke="none"/><text fill="#000000" stroke="none" font-family="Arial" font-size="13px" font-style="normal" font-weight="normal" text-decoration="none" x="399.5" y="440.5">1..*</text></g></g><g transform="translate(-174,-86) scale(1,1)"><g><path fill="none" stroke="none"/><text fill="#000000" stroke="none" font-family="Arial" font-size="13px" font-style="normal" font-weight="normal" text-decoration="none" x="495.5" y="413.5">+env</text></g></g><g transform="translate(-174,-86) scale(1,1)"><g><path fill="none" stroke="none"/><text fill="#000000" stroke="none" font-family="Arial" font-size="13px" font-style="normal" font-weight="normal" text-decoration="none" x="510.5" y="440.5">1</text></g></g><g transform="translate(-174,-86) scale(1,1)"><path fill="none" stroke="#000000" d="M 388 496 L 616 496" stroke-miterlimit="10"/></g><g transform="translate(-174,-86) scale(1,1)"><path fill="#000000" stroke="none" d="M 605.8373251423759 500.209517756016 L 616 496 L 605.8373251423758 491.790482243984 L 594 496"/></g><g transform="translate(-174,-86) scale(1,1)"><path fill="none" stroke="#000000" d="M 605.8373251423759 500.209517756016 L 616 496 L 605.8373251423758 491.790482243984 L 594 496 L 605.8373251423759 500.209517756016" stroke-miterlimit="10"/></g><g transform="translate(-174,-86) scale(1,1)"><g><path fill="none" stroke="none"/><text fill="#000000" stroke="none" font-family="Arial" font-size="13px" font-style="normal" font-weight="normal" text-decoration="none" x="391.5" y="487.5">+submachine</text></g></g><g transform="translate(-174,-86) scale(1,1)"><g><path fill="none" stroke="none"/><text fill="#000000" stroke="none" font-family="Arial" font-size="13px" font-style="normal" font-weight="normal" text-decoration="none" x="405.5" y="514.5">1</text></g></g><g transform="translate(-174,-86) scale(1,1)"><g><path fill="none" stroke="none"/><text fill="#000000" stroke="none" font-family="Arial" font-size="13px" font-style="normal" font-weight="normal" text-decoration="none" x="575.5" y="487.5">+env</text></g></g><g transform="translate(-174,-86) scale(1,1)"><rect fill="#C0C0C0" stroke="none" x="711" y="551" width="143" height="37" opacity="0.2"/></g><g transform="translate(-174,-86) scale(1,1)"><rect fill="#ffffff" stroke="none" x="704" y="544" width="143" height="37"/></g><g transform="translate(-174,-86) scale(1,1)"><path fill="none" stroke="#000000" d="M 704 544 L 847 544 L 847 581 L 704 581 L 704 544 Z Z" stroke-miterlimit="10"/></g><g transform="translate(-174,-86) scale(1,1)"><g><path fill="none" stroke="none"/><text fill="#000000" stroke="none" font-family="Arial" font-size="13px" font-style="normal" font-weight="normal" text-decoration="none" x="731.056884765625" y="561.5">«abstract type»</text></g></g><g transform="translate(-174,-86) scale(1,1)"><g><path fill="none" stroke="none"/><text fill="#000000" stroke="none" font-family="Arial" font-size="13px" font-style="italic" font-weight="bold" text-decoration="none" x="743.3681640625" y="576.5">PseudoState</text></g></g><g transform="translate(-174,-86) scale(1,1)"><path fill="none" stroke="#000000" d="M 776 544 L 776 200 M 776 200 A 8 8 0 0 0 768 192 L 584 192 M 584 192 A 8 8 0 0 1 576 184 L 576 133" stroke-miterlimit="10"/></g><g transform="translate(-174,-86) scale(1,1)"><path fill="#FFFFFF" stroke="none" d="M 584.419035512032 153.3253497152483 L 576 133 L 567.580964487968 153.3253497152483"/></g><g transform="translate(-174,-86) scale(1,1)"><path fill="none" stroke="#000000" d="M 584.419035512032 153.3253497152483 L 576 133 L 567.580964487968 153.3253497152483 L 584.419035512032 153.3253497152483" stroke-miterlimit="10"/></g><g transform="translate(-174,-86) scale(1,1)"><g><path fill="none" stroke="none"/><text fill="#000000" stroke="none" font-family="Arial" font-size="13px" font-style="normal" font-weight="normal" text-decoration="none" x="782.5" y="531.5">+isa</text></g></g></g></svg>